<svg width="27" height="27" viewBox="0 0 27 27" fill="none" xmlns="http://www.w3.org/2000/svg">
<path d="M13.5 20.25C13.8825 20.25 14.2034 20.1204 14.4626 19.8612C14.7209 19.6029 14.85 19.2825 14.85 18.9C14.85 18.5175 14.7209 18.1966 14.4626 17.9374C14.2034 17.6791 13.8825 17.55 13.5 17.55C13.1175 17.55 12.7971 17.6791 12.5388 17.9374C12.2796 18.1966 12.15 18.5175 12.15 18.9C12.15 19.2825 12.2796 19.6029 12.5388 19.8612C12.7971 20.1204 13.1175 20.25 13.5 20.25ZM13.5 27C11.6325 27 9.8775 26.6454 8.235 25.9362C6.5925 25.2279 5.16375 24.2663 3.94875 23.0513C2.73375 21.8363 1.7721 20.4075 1.0638 18.765C0.3546 17.1225 0 15.3675 0 13.5C0 11.6325 0.3546 9.8775 1.0638 8.235C1.7721 6.5925 2.73375 5.16375 3.94875 3.94875C5.16375 2.73375 6.5925 1.77165 8.235 1.06245C9.8775 0.35415 11.6325 0 13.5 0C15.3675 0 17.1225 0.35415 18.765 1.06245C20.4075 1.77165 21.8363 2.73375 23.0513 3.94875C24.2663 5.16375 25.2279 6.5925 25.9362 8.235C26.6454 9.8775 27 11.6325 27 13.5C27 15.3675 26.6454 17.1225 25.9362 18.765C25.2279 20.4075 24.2663 21.8363 23.0513 23.0513C21.8363 24.2663 20.4075 25.2279 18.765 25.9362C17.1225 26.6454 15.3675 27 13.5 27ZM13.5 14.85C13.8825 14.85 14.2034 14.7204 14.4626 14.4612C14.7209 14.2029 14.85 13.8825 14.85 13.5V8.1C14.85 7.7175 14.7209 7.39665 14.4626 7.13745C14.2034 6.87915 13.8825 6.75 13.5 6.75C13.1175 6.75 12.7971 6.87915 12.5388 7.13745C12.2796 7.39665 12.15 7.7175 12.15 8.1V13.5C12.15 13.8825 12.2796 14.2029 12.5388 14.4612C12.7971 14.7204 13.1175 14.85 13.5 14.85Z" fill="red"/>
</svg>
