<svg width="250" height="227" viewBox="0 0 250 227" fill="none" xmlns="http://www.w3.org/2000/svg">
<path d="M125.5 29C78.8364 29 41 67.8172 41 115.65C41 153.939 65.2183 186.381 98.792 197.849C99.2629 197.951 99.7436 198.002 100.225 198C103.356 198 104.564 195.699 104.564 193.699C104.564 191.625 104.488 186.193 104.45 178.95C101.655 179.605 98.7958 179.947 95.925 179.968C79.6663 179.968 75.9694 167.331 75.9694 167.331C72.1217 157.334 66.5763 154.656 66.5763 154.656C59.2203 149.488 66.5386 149.337 67.1045 149.337H67.1422C75.6299 150.091 80.0813 158.315 80.0813 158.315C84.3063 165.709 89.9647 167.784 95.0196 167.784C98.3621 167.717 101.653 166.946 104.677 165.52C105.431 159.937 107.619 156.127 110.033 153.939C91.285 151.751 71.5558 144.32 71.5558 111.123C71.5558 101.655 74.8377 93.9216 80.2321 87.8859C79.3645 85.698 76.4598 76.8707 81.0621 64.9502C81.6794 64.8025 82.3139 64.739 82.9482 64.7616C86.0038 64.7616 92.9071 65.931 104.3 73.8529C118.142 69.9799 132.782 69.9799 146.625 73.8529C158.017 65.931 164.921 64.7616 167.976 64.7616C168.611 64.739 169.245 64.8025 169.862 64.9502C174.465 76.8707 171.56 85.698 170.692 87.8859C176.087 93.9594 179.369 101.693 179.369 111.123C179.369 144.395 159.602 151.714 140.778 153.864C143.796 156.542 146.512 161.823 146.512 169.896C146.512 181.477 146.399 190.833 146.399 193.662C146.399 195.699 147.568 198 150.699 198C151.206 198.002 151.712 197.952 152.208 197.849C185.819 186.381 210 153.902 210 115.65C210 67.8172 172.164 29 125.5 29Z" fill="black"/>
</svg>
